<?xml version="1.0" encoding="UTF-8" standalone="no"?>
<!DOCTYPE svg PUBLIC "-//W3C//DTD SVG 1.1//EN" "http://www.w3.org/Graphics/SVG/1.1/DTD/svg11.dtd">
<svg width="100%" height="100%" viewBox="0 0 212 149" version="1.1" xmlns="http://www.w3.org/2000/svg" xmlns:xlink="http://www.w3.org/1999/xlink" xml:space="preserve" xmlns:serif="http://www.serif.com/" style="fill-rule:evenodd;clip-rule:evenodd;stroke-linejoin:round;stroke-miterlimit:2;">
    <g transform="matrix(1,0,0,1,-164,-211)">
        <path d="M270,262C288.489,262 303.5,277.011 303.5,295.5C303.5,313.989 288.489,329 270,329C251.511,329 236.5,313.989 236.5,295.5C236.5,277.011 251.511,262 270,262ZM285,302C287.76,302 290,304.24 290,307C290,309.76 287.76,312 285,312C282.24,312 280,309.76 280,307C280,304.24 282.24,302 285,302ZM259.17,272.383C260.209,271.52 261.544,271 263,271C266.311,271 269,273.689 269,277C269,280.311 266.311,283 263,283C262.744,283 262.491,282.984 262.243,282.953C249.547,287.778 247.251,298.143 250.498,311.46C241.481,294.564 243.304,281.191 259.17,272.383Z" style="fill:rgb(11,0,0);"/>
        <path d="M319.376,237L354.393,237C366.318,237 376,246.682 376,258.607L376,338.393C376,350.318 366.318,360 354.393,360L185.607,360C173.682,360 164,350.318 164,338.393L164,258.607C164,246.682 173.682,237 185.607,237L218.624,237L234.846,211L303.154,211L319.376,237ZM305.653,338.021C296.008,346.12 283.57,351 270,351C239.369,351 214.5,326.131 214.5,295.5C214.5,264.869 239.369,240 270,240C300.631,240 325.5,264.869 325.5,295.5C325.5,304.34 323.429,312.7 319.746,320.12L328.98,342.498L305.653,338.021ZM354.5,256C354.5,254.344 353.156,253 351.5,253L338,253C336.344,253 335,254.344 335,256L335,262C335,263.656 336.344,265 338,265L351.5,265C353.156,265 354.5,263.656 354.5,262L354.5,256Z" style="fill:rgb(107,193,255);"/>
        <path d="M214.5,222.75C214.5,221.232 213.268,220 211.75,220L191.75,220C190.232,220 189,221.232 189,222.75L189,228.25C189,229.768 190.232,231 191.75,231L211.75,231C213.268,231 214.5,229.768 214.5,228.25L214.5,222.75Z"/>
    </g>
</svg>